<svg xmlns="http://www.w3.org/2000/svg" width="75" height="46.993" viewBox="0 0 75 46.993">
  <path id="behance" d="M23.752,5.731a28.67,28.67,0,0,1,6.016.581,13.1,13.1,0,0,1,4.659,1.9,8.988,8.988,0,0,1,3.014,3.52,12.425,12.425,0,0,1,1.05,5.409,10.113,10.113,0,0,1-1.578,5.814,11.415,11.415,0,0,1-4.708,3.8,11.056,11.056,0,0,1,6.335,4.3,12.816,12.816,0,0,1,2.088,7.407,12.741,12.741,0,0,1-1.342,6.046,11.657,11.657,0,0,1-3.651,4.176,16.173,16.173,0,0,1-5.244,2.4,23.567,23.567,0,0,1-6.031.772H2V5.731ZM22.436,24.368A7.344,7.344,0,0,0,26.9,23.075,4.85,4.85,0,0,0,28.64,18.88a5.541,5.541,0,0,0-.566-2.65,4.177,4.177,0,0,0-1.563-1.6,6.307,6.307,0,0,0-2.238-.806,13.527,13.527,0,0,0-2.613-.229h-9.5V24.368ZM23,44.006a12.927,12.927,0,0,0,2.849-.289,6.643,6.643,0,0,0,2.388-.978,4.849,4.849,0,0,0,1.649-1.84,6.414,6.414,0,0,0,.607-2.991c0-2.376-.671-4.067-2-5.09A8.568,8.568,0,0,0,23.2,31.3H12.158V44.01H23Zm32.105-.154a8.166,8.166,0,0,0,5.937,2.017,8.22,8.22,0,0,0,4.79-1.4,5.912,5.912,0,0,0,2.448-2.961h8.078c-1.3,4.018-3.265,6.89-5.956,8.618a17.326,17.326,0,0,1-9.671,2.6,19.19,19.19,0,0,1-7.122-1.263,15.116,15.116,0,0,1-5.394-3.591A16.382,16.382,0,0,1,44.826,42.3a20.364,20.364,0,0,1-1.2-7.118A19.575,19.575,0,0,1,44.859,28.2a16.4,16.4,0,0,1,3.5-5.6,16.633,16.633,0,0,1,5.413-3.726,17.37,17.37,0,0,1,6.965-1.357,15.867,15.867,0,0,1,7.418,1.649,14.868,14.868,0,0,1,5.21,4.431A18.085,18.085,0,0,1,76.3,29.938a23.568,23.568,0,0,1,.641,7.433H52.836A9.366,9.366,0,0,0,55.107,43.852ZM65.648,26.306a6.861,6.861,0,0,0-5.192-1.859,7.906,7.906,0,0,0-3.651.746,7.384,7.384,0,0,0-2.324,1.84,6.641,6.641,0,0,0-1.229,2.354,10.571,10.571,0,0,0-.416,2.2H67.762A8.912,8.912,0,0,0,65.648,26.306ZM50.962,8.827h18.7v4.554h-18.7Z" transform="translate(-2 -5.731)" fill="#1d1d1d"/>
</svg>
