<svg xmlns="http://www.w3.org/2000/svg" width="75.999" height="76.001" viewBox="0 0 75.999 76.001">
  <g id="dribbble" transform="translate(-172.5 -9191.187)">
    <path id="Path_246" data-name="Path 246" d="M199.389,16.962a16.079,16.079,0,0,0,4.13-8.039,37.026,37.026,0,0,0-37.531-6.4A96.425,96.425,0,0,1,183.4,26.777c6.74-2.437,12.358-5.772,15.985-9.815Zm0,0" transform="translate(31.303 9191.187)" fill="#1d1d1d"/>
    <path id="Path_247" data-name="Path 247" d="M314.755,92.013c-4.059,4.524-10.093,8.2-17.3,10.878.9,1.965,1.719,3.971,2.494,6a54.462,54.462,0,0,1,11.452-1.249,53.8,53.8,0,0,1,17.663,2.966c.005-.253.038-.5.038-.754a37.423,37.423,0,0,0-9.85-25.287,21.94,21.94,0,0,1-4.5,7.443Zm0,0" transform="translate(-80.602 9119.212)" fill="#1d1d1d"/>
    <path id="Path_248" data-name="Path 248" d="M5.848,55.645a87.64,87.64,0,0,0,14.921,1.311,80.386,80.386,0,0,0,21.858-2.994A91.568,91.568,0,0,0,25.139,30.3,38.4,38.4,0,0,0,5.848,55.645Zm0,0" transform="translate(167.515 9165.355)" fill="#1d1d1d"/>
    <path id="Path_249" data-name="Path 249" d="M351.692,274.1A49.154,49.154,0,0,0,334.41,271a50.329,50.329,0,0,0-9.965,1.008,109.447,109.447,0,0,1,5.487,31.191A37.9,37.9,0,0,0,351.692,274.1Zm0,0" transform="translate(-103.612 8960.638)" fill="#1d1d1d"/>
    <path id="Path_250" data-name="Path 250" d="M0,223.788a38.119,38.119,0,0,0,13.935,29.106,31.988,31.988,0,0,1,7.837-16.474,44.453,44.453,0,0,1,20.294-12.507c-.75-1.934-1.568-3.829-2.433-5.7a84.35,84.35,0,0,1-23.851,3.361,92.119,92.119,0,0,1-15.6-1.366C.07,221.388,0,222.58,0,223.788Zm0,0" transform="translate(172.5 9005.637)" fill="#1d1d1d"/>
    <path id="Path_251" data-name="Path 251" d="M129.467,296.363a26.731,26.731,0,0,0-7.014,16.464,37.374,37.374,0,0,0,30.863,4.068,105.083,105.083,0,0,0-5.382-31.821A40.042,40.042,0,0,0,129.467,296.363Zm0,0" transform="translate(68.302 8948.64)" fill="#1d1d1d"/>
  </g>
</svg>
