<svg xmlns="http://www.w3.org/2000/svg" width="74.526" height="74.65" viewBox="0 0 74.526 74.65">
  <g id="instagram" transform="translate(-740.974 -9191.782)">
    <path id="Path_10" data-name="Path 10" d="M77.283,25.014a27.021,27.021,0,0,0-1.734-9.171,19.077,19.077,0,0,0-10.9-10.9,27.341,27.341,0,0,0-9.047-1.738c-3.981-.178-5.243-.228-15.35-.228s-11.4,0-15.354.228a27.337,27.337,0,0,0-9.043,1.738,19.066,19.066,0,0,0-10.9,10.9,27.124,27.124,0,0,0-1.734,9.043C3.051,28.872,3,30.134,3,40.24s0,11.4.232,15.354a27.3,27.3,0,0,0,1.734,9.051,19.077,19.077,0,0,0,10.9,10.893A27.248,27.248,0,0,0,24.906,77.4c3.985.178,5.248.232,15.354.232s11.4,0,15.354-.232a27.271,27.271,0,0,0,9.047-1.734,19.1,19.1,0,0,0,10.9-10.9,27.255,27.255,0,0,0,1.734-9.051c.178-3.981.232-5.243.232-15.354S77.515,28.975,77.283,25.014ZM40.231,59.352A19.132,19.132,0,1,1,59.364,40.219,19.128,19.128,0,0,1,40.231,59.352ZM60.125,24.841a4.461,4.461,0,1,1,4.457-4.461A4.455,4.455,0,0,1,60.125,24.841Z" transform="translate(737.977 9188.801)" fill="#1d1d1d"/>
    <circle id="Ellipse_2" data-name="Ellipse 2" cx="11.751" cy="11.751" r="11.751" transform="translate(766.92 9217.236)" fill="#1d1d1d"/>
  </g>
</svg>
