<svg xmlns="http://www.w3.org/2000/svg" width="74.433" height="74.434" viewBox="0 0 74.433 74.434">
  <path id="pintrest" d="M-83.827-244.992a37.214,37.214,0,0,0-37.215,37.215A37.236,37.236,0,0,0-97.387-173.11c-.328-2.943-.618-7.473.127-10.684.678-2.906,4.366-18.5,4.366-18.5a13.448,13.448,0,0,1-1.114-5.528c0-5.171,3-9.034,6.735-9.034,3.178,0,4.709,2.384,4.709,5.241,0,3.2-2.034,7.968-3.081,12.394a5.4,5.4,0,0,0,5.51,6.724c6.612,0,11.7-6.974,11.7-17.043,0-8.911-6.4-15.139-15.545-15.139-10.591,0-16.808,7.942-16.808,16.149a14.482,14.482,0,0,0,2.772,8.493,1.117,1.117,0,0,1,.257,1.065c-.283,1.173-.913,3.7-1.032,4.221-.164.682-.54.827-1.248.5-4.645-2.164-7.551-8.959-7.551-14.42,0-11.738,8.527-22.519,24.59-22.519,12.912,0,22.944,9.2,22.944,21.494,0,12.83-8.087,23.145-19.311,23.145-3.774,0-7.316-1.956-8.531-4.269,0,0-1.866,7.1-2.321,8.844a41.59,41.59,0,0,1-4.623,9.76,37.249,37.249,0,0,0,11.019,1.658,37.216,37.216,0,0,0,37.215-37.215,37.223,37.223,0,0,0-37.219-37.219" transform="translate(121.042 244.992)" fill="#1d1d1d"/>
</svg>
