<svg xmlns="http://www.w3.org/2000/svg" width="73.335" height="74.818" viewBox="0 0 73.335 74.818">
  <path id="skype" d="M40.815,62.925c-12.25,0-17.848-6.335-17.848-10.978a4.084,4.084,0,0,1,1.239-2.93,3.932,3.932,0,0,1,2.951-1.1c5.241,0,3.87,7.981,13.659,7.981,5,0,7.939-3.059,7.939-5.923,0-1.725-.973-3.7-4.273-4.485L33.553,42.7c-8.775-2.265-10.3-7.22-10.3-11.813,0-9.531,8.6-12.985,16.776-12.985,7.54,0,16.5,4.223,16.5,9.938,0,2.461-2.028,3.782-4.385,3.782-4.481,0-3.728-6.384-12.732-6.384-4.477,0-6.838,2.132-6.838,5.113s3.487,3.99,6.543,4.668l8.068,1.85c8.837,2.02,11.185,7.278,11.185,12.316,0,7.752-5.915,13.737-17.566,13.737M74.633,46.532a35.635,35.635,0,0,0,.532-6.16,35.212,35.212,0,0,0-12.27-26.91A34.131,34.131,0,0,0,34.68,5.748,20.026,20.026,0,0,0,24.513,3,20.592,20.592,0,0,0,6.764,13.47,21.212,21.212,0,0,0,6.7,34.3a35.372,35.372,0,0,0,9.485,30.979,34.206,34.206,0,0,0,30.48,9.789,20.049,20.049,0,0,0,10.155,2.752A20.594,20.594,0,0,0,74.567,67.352a21.176,21.176,0,0,0,.067-20.82" transform="translate(-4 -3)" fill="#1d1d1d"/>
</svg>
