<svg xmlns="http://www.w3.org/2000/svg" width="74.669" height="74.751" viewBox="0 0 74.669 74.751">
  <path id="slack" d="M17.673,49.21a7.843,7.843,0,1,1-7.841-7.852h7.841Zm3.956,0a7.843,7.843,0,1,1,15.686,0V68.874a7.843,7.843,0,1,1-15.686,0Zm7.845-31.525a7.854,7.854,0,1,1,7.841-7.856v7.856Zm0,3.952a7.854,7.854,0,0,1,0,15.708H9.836a7.854,7.854,0,0,1,0-15.709H29.474Zm31.5,7.856a7.843,7.843,0,1,1,7.841,7.852H60.969Zm-3.956,0a7.843,7.843,0,1,1-15.686,0V9.828a7.843,7.843,0,1,1,15.686,0ZM49.168,61.018a7.854,7.854,0,1,1-7.841,7.856V61.018h7.841Zm0-3.952a7.854,7.854,0,0,1,0-15.709H68.811a7.854,7.854,0,0,1,0,15.709Z" transform="translate(-1.987 -1.976)" fill="#1d1d1d"/>
</svg>
