<svg xmlns="http://www.w3.org/2000/svg" width="74" height="60.105" viewBox="0 0 74 60.105">
  <path id="twitter" d="M68.4,19c.049.659.049,1.314.049,1.969,0,20.051-15.262,43.157-43.153,43.157A42.856,42.856,0,0,1,2,57.312a31.7,31.7,0,0,0,3.664.188A30.384,30.384,0,0,0,24.5,51.02,15.2,15.2,0,0,1,10.311,40.5a19.315,19.315,0,0,0,2.866.233,16.138,16.138,0,0,0,4-.516A15.163,15.163,0,0,1,5.009,25.336v-.188a15.305,15.305,0,0,0,6.853,1.924A15.189,15.189,0,0,1,7.163,6.79,43.141,43.141,0,0,0,38.439,22.662a17.235,17.235,0,0,1-.377-3.476A15.182,15.182,0,0,1,64.312,8.809a29.963,29.963,0,0,0,9.625-3.664A15.139,15.139,0,0,1,67.268,13.5,30.4,30.4,0,0,0,76,11.155,32.552,32.552,0,0,1,68.4,19Z" transform="translate(-2 -4.019)" fill="#1d1d1d"/>
</svg>
